<?xml version="1.0" encoding="utf-8"?>
<!-- Generator: Adobe Illustrator 17.1.0, SVG Export Plug-In . SVG Version: 6.00 Build 0)  -->
<!DOCTYPE svg PUBLIC "-//W3C//DTD SVG 1.1//EN" "http://www.w3.org/Graphics/SVG/1.1/DTD/svg11.dtd">
<svg version="1.1" id="Layer_1" xmlns="http://www.w3.org/2000/svg" xmlns:xlink="http://www.w3.org/1999/xlink" x="0px" y="0px"
	 viewBox="0 0 792 612" enable-background="new 0 0 792 612" xml:space="preserve">
<path fill="#FFFFFF" d="M658.9,10.5H133.1c-17.9,0-32.6,14.7-32.6,32.6v525.8c0,18.1,14.7,32.6,32.6,32.6h283V372.6h-77v-89.2h77
	v-65.8c0-76.4,46.5-117.9,114.6-117.9c32.6,0,60.8,2.5,68.8,3.4V183h-47.2c-36.9,0-44.3,17.7-44.3,43.3v56.9h88.3l-11.5,89.2H508
	v228.8h150.6c18.1,0,32.6-14.7,32.6-32.6V43.1C691.5,25.2,676.8,10.5,658.9,10.5z"/>
</svg>
