<?xml version="1.0" encoding="utf-8"?>
<!-- Generator: Adobe Illustrator 17.1.0, SVG Export Plug-In . SVG Version: 6.00 Build 0)  -->
<!DOCTYPE svg PUBLIC "-//W3C//DTD SVG 1.1//EN" "http://www.w3.org/Graphics/SVG/1.1/DTD/svg11.dtd">
<svg version="1.1"
	 id="Layer_1" xmlns:cc="http://creativecommons.org/ns#" xmlns:rdf="http://www.w3.org/1999/02/22-rdf-syntax-ns#" xmlns:dc="http://purl.org/dc/elements/1.1/"
	 xmlns="http://www.w3.org/2000/svg" xmlns:xlink="http://www.w3.org/1999/xlink" x="0px" y="0px" viewBox="0 0 792 612"
	 enable-background="new 0 0 792 612" xml:space="preserve">
<g transform="translate(-539.18 -568.86)">
	<path fill="#FFFFFF" d="M796.6,1178.2c281.9,0,436.1-233.6,436.1-436.1c0-6.5-0.3-13.3-0.5-19.8c29.8-21.6,55.9-48.6,76.4-79.4
		c-27.6,12.3-56.9,20.3-88,24.1c31.6-19,55.9-48.9,67.4-84.7c-29.6,17.5-62.4,30.3-97.2,37.1c-28.1-29.8-67.7-48.4-111.8-48.4
		c-84.6,0-153,68.6-153,153.1c0,12,1.3,23.8,4,34.8c-127.3-6.5-240.3-67.4-315.8-160.1c-13.3,22.6-20.8,48.9-20.8,76.9
		c0,53.1,27.1,100,68.2,127.6c-25.1-0.8-48.9-7.8-69.4-19c0,0.8,0,1.3,0,2c0,74.2,52.9,136.1,123.1,150.1
		c-12.8,3.5-26.3,5.5-40.3,5.5c-9.8,0-19.5-1-28.8-2.8c19.5,60.9,76.2,105.3,143.1,106.5c-52.4,41.1-118.5,65.7-190.2,65.7
		c-12.3,0-24.6-0.8-36.6-2C629.5,1152.9,710.2,1178.2,796.6,1178.2"/>
</g>
</svg>
