<?xml version="1.0" standalone="no"?>
<!DOCTYPE svg PUBLIC "-//W3C//DTD SVG 20010904//EN"
 "http://www.w3.org/TR/2001/REC-SVG-20010904/DTD/svg10.dtd">
<svg version="1.0" xmlns="http://www.w3.org/2000/svg"
 width="512.000000pt" height="512.000000pt" viewBox="0 0 512.000000 512.000000"
 preserveAspectRatio="xMidYMid meet">
<metadata>
Created by potrace 1.11, written by Peter Selinger 2001-2013
</metadata>
<g transform="translate(0.000000,512.000000) scale(0.100000,-0.100000)"
fill="#000000" stroke="none">
<path d="M357 5109 c-159 -37 -309 -189 -346 -350 -7 -29 -11 -678 -11 -1879
0 -1549 2 -1850 15 -1930 72 -478 457 -863 935 -935 80 -13 381 -15 1930 -15
1201 0 1850 4 1879 11 163 37 313 187 350 350 7 28 11 321 11 782 l0 737 -215
0 -215 0 0 140 0 140 55 0 c33 0 55 4 55 11 0 6 -9 42 -21 80 l-21 69 -167 0
-166 0 -24 -68 c-13 -37 -26 -73 -29 -79 -3 -10 11 -13 52 -13 l57 0 -3 -138
-3 -137 -252 -3 -253 -2 0 155 0 155 49 0 c49 0 50 0 65 43 9 23 63 173 120
332 l104 290 -54 3 -54 3 0 149 0 150 460 0 460 0 0 458 c0 347 -4 480 -15
552 -72 478 -457 863 -935 935 -80 13 -379 15 -1935 14 -1043 -1 -1856 -5
-1878 -10z m1108 -1959 c222 -31 359 -134 401 -300 42 -166 -35 -338 -184
-414 -92 -47 -160 -58 -394 -63 l-218 -5 0 -89 0 -89 65 0 65 0 0 -155 0 -155
-372 2 -373 3 0 150 0 150 63 3 62 3 0 334 0 335 -65 0 -65 0 0 150 0 150 473
0 c259 0 504 -5 542 -10z m1135 -140 l0 -150 -45 0 c-25 0 -45 -3 -45 -7 -1
-23 146 -541 151 -535 6 6 189 528 189 538 0 2 -22 4 -50 4 l-50 0 0 150 0
150 280 0 280 0 0 -150 0 -150 -45 0 c-25 0 -45 -4 -45 -9 0 -13 181 -525 189
-533 6 -7 151 502 151 530 0 8 -16 12 -45 12 l-45 0 0 150 0 150 260 0 260 0
0 -149 0 -150 -46 -3 -46 -3 -178 -483 c-99 -265 -182 -487 -185 -492 -4 -6
-83 -10 -199 -10 l-194 0 -11 28 c-6 15 -44 123 -86 241 -41 118 -76 216 -78
218 -2 2 -35 -83 -72 -189 -37 -106 -77 -217 -87 -246 l-20 -52 -200 2 -200 3
-139 380 c-76 209 -157 431 -180 493 l-41 112 -44 0 -44 0 0 150 0 150 330 0
330 0 0 -150z"/>
<path d="M1070 2760 l0 -120 83 0 c157 1 207 29 207 118 0 92 -47 122 -195
122 l-95 0 0 -120z"/>
<path d="M5020 2857 c0 -7 91 -252 96 -256 2 -2 4 55 4 127 l0 132 -50 0 c-27
0 -50 -1 -50 -3z"/>
<path d="M4536 2663 c-31 -92 -56 -171 -56 -176 0 -4 50 -7 110 -7 79 0 110 3
110 12 0 18 -92 322 -100 331 -4 5 -33 -67 -64 -160z"/>
</g>
</svg>
