<?xml version="1.0" standalone="no"?>
<!DOCTYPE svg PUBLIC "-//W3C//DTD SVG 20010904//EN"
 "http://www.w3.org/TR/2001/REC-SVG-20010904/DTD/svg10.dtd">
<svg version="1.0" xmlns="http://www.w3.org/2000/svg"
 width="512.000000pt" height="512.000000pt" viewBox="0 0 512.000000 512.000000"
 preserveAspectRatio="xMidYMid meet">
<metadata>
Created by potrace 1.11, written by Peter Selinger 2001-2013
</metadata>
<g transform="translate(0.000000,512.000000) scale(0.100000,-0.100000)"
fill="#000000" stroke="none">
<path d="M0 2560 l0 -2560 2560 0 2560 0 0 2560 0 2560 -2560 0 -2560 0 0
-2560z m2408 1198 c77 -28 196 -146 238 -235 16 -34 31 -62 34 -62 3 -1 25 26
50 60 88 122 205 209 325 245 80 24 229 24 310 0 216 -64 320 -201 381 -506
15 -75 18 -186 21 -977 l4 -893 -240 0 -241 0 0 749 c0 774 -5 910 -40 1009
-24 66 -43 89 -95 113 -99 46 -206 4 -271 -107 -13 -22 -34 -76 -46 -120 -22
-78 -22 -90 -26 -861 l-3 -783 -239 0 -239 0 -3 818 c-4 794 -4 819 -24 884
-40 127 -103 188 -197 188 -87 0 -164 -57 -216 -157 -55 -108 -54 -105 -58
-950 l-4 -783 -240 0 -239 0 0 1170 0 1170 225 0 225 0 0 -147 1 -148 37 75
c113 229 347 331 570 248z"/>
</g>
</svg>
