<?xml version="1.0" standalone="no"?>
<!DOCTYPE svg PUBLIC "-//W3C//DTD SVG 20010904//EN"
 "http://www.w3.org/TR/2001/REC-SVG-20010904/DTD/svg10.dtd">
<svg version="1.0" xmlns="http://www.w3.org/2000/svg"
 width="600.000000pt" height="600.000000pt" viewBox="0 0 600.000000 600.000000"
 preserveAspectRatio="xMidYMid meet">
<metadata>
Created by potrace 1.11, written by Peter Selinger 2001-2013
</metadata>
<g transform="translate(0.000000,600.000000) scale(0.100000,-0.100000)"
fill="#000000" stroke="none">
<path d="M1950 5579 c-195 -17 -409 -75 -590 -160 -119 -56 -295 -171 -388
-253 -35 -31 -104 -87 -155 -125 -131 -97 -205 -168 -296 -281 -219 -272 -333
-574 -348 -920 -24 -573 238 -1079 722 -1398 71 -47 157 -107 190 -133 312
-243 748 -371 1150 -339 424 35 800 200 1103 484 l53 50 1047 -1047 c576 -575
1059 -1051 1074 -1056 38 -14 92 3 122 40 20 23 26 42 26 77 l0 47 -1059 1060
-1058 1060 53 75 c29 41 85 138 123 215 132 267 191 513 191 803 0 967 -699
1724 -1664 1802 -142 11 -158 11 -296 -1z m505 -269 c311 -67 554 -197 765
-409 256 -257 398 -557 441 -931 16 -140 6 -385 -21 -512 -153 -726 -785
-1250 -1505 -1247 l-120 0 111 28 c288 74 513 201 720 406 171 169 284 338
364 542 65 165 110 385 110 535 l0 58 -90 0 -90 0 -110 -219 c-67 -134 -121
-228 -137 -240 -18 -15 -40 -21 -75 -21 -84 0 -90 12 -204 353 -54 163 -102
297 -105 297 -3 0 -73 -172 -154 -382 -82 -211 -157 -395 -167 -410 -40 -58
-145 -59 -186 0 -11 15 -77 201 -148 414 -71 213 -132 384 -136 380 -4 -4 -59
-140 -123 -302 -132 -336 -142 -350 -224 -350 -80 0 -94 21 -186 267 l-80 213
-93 0 c-105 0 -143 13 -167 60 -31 60 -10 137 45 165 22 12 66 15 189 15 201
0 200 0 256 -156 23 -65 41 -101 45 -93 4 8 62 153 130 322 136 342 139 347
227 347 84 0 86 -4 233 -446 73 -217 133 -394 135 -392 2 2 71 179 154 393
168 431 175 445 252 445 53 0 93 -22 111 -62 9 -18 59 -166 113 -328 54 -162
101 -299 106 -304 4 -5 36 48 71 119 38 78 72 134 87 144 21 13 49 15 163 13
110 -3 138 -1 138 10 0 28 -40 177 -70 263 -176 498 -610 890 -1112 1004 -46
10 -103 24 -128 29 -35 8 1 10 160 7 163 -2 225 -7 305 -25z"/>
</g>
</svg>
